<svg width="150" height="38" viewBox="0 0 150 38" fill="none" xmlns="http://www.w3.org/2000/svg">
<path d="M22.2576 17.451C22.2738 16.199 22.6073 14.9714 23.227 13.8825C23.8468 12.7936 24.7327 11.8787 25.8024 11.2229C25.1229 10.2552 24.2264 9.45874 23.1843 8.89691C22.1421 8.33508 20.9829 8.02332 19.7988 7.98637C17.2729 7.72198 14.8241 9.49362 13.5369 9.49362C12.2249 9.49362 10.2431 8.01262 8.109 8.05641C6.72862 8.10088 5.38334 8.50116 4.20422 9.21825C3.0251 9.93534 2.05237 10.9448 1.38078 12.1482C-1.52836 17.1708 0.6416 24.5524 3.42832 28.6123C4.82257 30.6004 6.45205 32.821 8.5842 32.7423C10.6706 32.656 11.4499 31.4156 13.9684 31.4156C16.4635 31.4156 17.1946 32.7423 19.37 32.6922C21.6088 32.656 23.0194 30.6953 24.3647 28.6885C25.3665 27.272 26.1374 25.7064 26.6488 24.0497C25.3481 23.5011 24.2381 22.5829 23.4572 21.4094C22.6763 20.236 22.2591 18.8593 22.2576 17.451V17.451Z" fill="white"/>
<path d="M18.1486 5.3165C19.3694 3.85518 19.9707 1.97692 19.8251 0.0805664C17.9601 0.275897 16.2374 1.16474 15.0002 2.56998C14.3953 3.25648 13.932 4.05513 13.6368 4.92029C13.3417 5.78544 13.2203 6.70013 13.2799 7.61207C14.2127 7.62164 15.1355 7.42002 15.9789 7.02239C16.8222 6.62476 17.5641 6.04149 18.1486 5.3165Z" fill="white"/>
<path d="M48.6315 27.7095H41.5115L39.8017 32.7442H36.7859L43.5299 14.1172H46.6631L53.4071 32.7442H50.3399L48.6315 27.7095ZM42.2489 25.3863H47.8927L45.1105 17.2154H45.0327L42.2489 25.3863Z" fill="white"/>
<path d="M67.9718 25.9547C67.9718 30.1749 65.7067 32.8863 62.2884 32.8863C61.4225 32.9315 60.5614 32.7326 59.8035 32.3124C59.0457 31.8922 58.4219 31.2676 58.0035 30.5103H57.9388V37.2369H55.1434V19.1636H57.8492V21.4224H57.9006C58.3383 20.6687 58.9727 20.0474 59.7363 19.6247C60.4998 19.2019 61.3641 18.9935 62.237 19.0215C65.6934 19.0216 67.9718 21.7462 67.9718 25.9547ZM65.0985 25.9547C65.0985 23.2052 63.6736 21.3975 61.4996 21.3975C59.3637 21.3975 57.9271 23.2432 57.9271 25.9547C57.9271 28.691 59.3637 30.5235 61.4996 30.5235C63.6736 30.5235 65.0985 28.7291 65.0985 25.9547Z" fill="white"/>
<path d="M82.9611 25.9547C82.9611 30.1749 80.6959 32.8863 77.2777 32.8863C76.4118 32.9315 75.5506 32.7325 74.7928 32.3123C74.035 31.8921 73.4112 31.2676 72.9927 30.5103H72.9281V37.2369H70.1326V19.1636H72.8384V21.4224H72.8898C73.3275 20.6687 73.9619 20.0474 74.7255 19.6247C75.489 19.2019 76.3533 18.9935 77.2262 19.0215C80.6827 19.0215 82.9611 21.7461 82.9611 25.9547ZM80.0878 25.9547C80.0878 23.2052 78.6629 21.3975 76.4888 21.3975C74.353 21.3975 72.9163 23.2432 72.9163 25.9547C72.9163 28.691 74.353 30.5235 76.4888 30.5235C78.6629 30.5235 80.0878 28.7291 80.0878 25.9547H80.0878Z" fill="white"/>
<path d="M92.8677 27.5543C93.0748 29.4015 94.8743 30.6143 97.3333 30.6143C99.6895 30.6143 101.385 29.4014 101.385 27.7359C101.385 26.29 100.362 25.4243 97.9414 24.8311L95.5206 24.2495C92.0906 23.4233 90.4982 21.8237 90.4982 19.228C90.4982 16.0142 93.3069 13.8066 97.2951 13.8066C101.242 13.8066 103.948 16.0142 104.039 19.228H101.217C101.048 17.3691 99.5073 16.2471 97.2554 16.2471C95.0035 16.2471 93.4626 17.3823 93.4626 19.0347C93.4626 20.3516 94.4468 21.1265 96.8544 21.7197L98.9124 22.2236C102.745 23.1274 104.337 24.6626 104.337 27.3872C104.337 30.872 101.554 33.0546 97.1261 33.0546C92.9837 33.0546 90.1868 30.9233 90.0061 27.5541L92.8677 27.5543Z" fill="white"/>
<path d="M110.37 15.9497V19.1636H112.96V21.3711H110.37V28.8579C110.37 30.021 110.889 30.563 112.027 30.563C112.335 30.5576 112.642 30.5361 112.947 30.4985V32.6928C112.435 32.7882 111.915 32.8314 111.394 32.8217C108.637 32.8217 107.562 31.789 107.562 29.1552V21.3711H105.581V19.1636H107.562V15.9497H110.37Z" fill="white"/>
<path d="M114.46 25.9546C114.46 21.6816 116.984 18.9966 120.919 18.9966C124.867 18.9966 127.379 21.6816 127.379 25.9546C127.379 30.2393 124.881 32.9126 120.919 32.9126C116.959 32.9126 114.46 30.2392 114.46 25.9546ZM124.531 25.9546C124.531 23.0234 123.184 21.2935 120.919 21.2935C118.654 21.2935 117.308 23.0366 117.308 25.9546C117.308 28.8975 118.654 30.6143 120.919 30.6143C123.184 30.6143 124.531 28.8975 124.531 25.9546H124.531Z" fill="white"/>
<path d="M129.684 19.1635H132.35V21.475H132.415C132.595 20.7531 133.019 20.1151 133.616 19.6683C134.213 19.2214 134.945 18.993 135.691 19.0214C136.013 19.0203 136.334 19.0552 136.649 19.1254V21.7328C136.242 21.6089 135.818 21.552 135.393 21.5644C134.986 21.548 134.582 21.6194 134.206 21.7737C133.83 21.928 133.492 22.1616 133.215 22.4585C132.939 22.7553 132.73 23.1083 132.603 23.4933C132.476 23.8783 132.434 24.2862 132.48 24.6889V32.7441H129.684L129.684 19.1635Z" fill="white"/>
<path d="M149.537 28.7554C149.161 31.2207 146.753 32.9126 143.673 32.9126C139.711 32.9126 137.252 30.2656 137.252 26.019C137.252 21.7593 139.724 18.9966 143.555 18.9966C147.323 18.9966 149.693 21.5776 149.693 25.6953V26.6504H140.074V26.8188C140.03 27.3186 140.092 27.8221 140.258 28.2959C140.424 28.7697 140.689 29.2028 141.035 29.5667C141.382 29.9305 141.802 30.2166 142.268 30.4061C142.734 30.5955 143.235 30.684 143.738 30.6655C144.398 30.7272 145.061 30.5747 145.628 30.2305C146.194 29.8863 146.635 29.369 146.883 28.7554L149.537 28.7554ZM140.087 24.7021H146.896C146.921 24.2528 146.853 23.803 146.695 23.3812C146.538 22.9594 146.295 22.5746 145.981 22.251C145.667 21.9273 145.29 21.6718 144.872 21.5005C144.455 21.3291 144.007 21.2457 143.555 21.2554C143.1 21.2527 142.649 21.3399 142.228 21.512C141.807 21.6841 141.424 21.9377 141.101 22.2582C140.779 22.5786 140.523 22.9596 140.349 23.379C140.175 23.7985 140.086 24.2482 140.087 24.7022V24.7021Z" fill="white"/>
</svg>
