<svg width="600" height="111" viewBox="0 0 600 111" fill="none" xmlns="http://www.w3.org/2000/svg">
<path d="M330.564 76.242C331.628 76.242 332.548 76.4427 333.322 76.844C334.106 77.236 334.704 77.8007 335.114 78.538C335.534 79.2753 335.744 80.1433 335.744 81.142C335.744 82.1407 335.534 83.0087 335.114 83.746C334.704 84.474 334.106 85.034 333.322 85.426C332.548 85.8087 331.628 86 330.564 86H327.526V76.242H330.564ZM330.564 84.95C331.824 84.95 332.786 84.6187 333.448 83.956C334.111 83.284 334.442 82.346 334.442 81.142C334.442 79.9287 334.106 78.9813 333.434 78.3C332.772 77.6187 331.815 77.278 330.564 77.278H328.8V84.95H330.564ZM345.193 83.83H340.937L340.153 86H338.809L342.337 76.298H343.807L347.321 86H345.977L345.193 83.83ZM344.829 82.794L343.065 77.866L341.301 82.794H344.829ZM355.996 86L353.672 82.01H352.132V86H350.858V76.242H354.008C354.746 76.242 355.366 76.368 355.87 76.62C356.384 76.872 356.766 77.2127 357.018 77.642C357.27 78.0713 357.396 78.5613 357.396 79.112C357.396 79.784 357.2 80.3767 356.808 80.89C356.426 81.4033 355.847 81.744 355.072 81.912L357.522 86H355.996ZM352.132 80.988H354.008C354.699 80.988 355.217 80.82 355.562 80.484C355.908 80.1387 356.08 79.6813 356.08 79.112C356.08 78.5333 355.908 78.0853 355.562 77.768C355.226 77.4507 354.708 77.292 354.008 77.292H352.132V80.988ZM366.668 86L362.65 81.548V86H361.376V76.242H362.65V80.764L366.682 76.242H368.292L363.868 81.128L368.334 86H366.668ZM387.387 76.312V86H386.113V78.776L382.893 86H381.997L378.763 78.762V86H377.489V76.312H378.861L382.445 84.32L386.029 76.312H387.387ZM395.972 86.098C395.066 86.098 394.24 85.888 393.494 85.468C392.747 85.0387 392.154 84.446 391.716 83.69C391.286 82.9247 391.072 82.066 391.072 81.114C391.072 80.162 391.286 79.308 391.716 78.552C392.154 77.7867 392.747 77.194 393.494 76.774C394.24 76.3447 395.066 76.13 395.972 76.13C396.886 76.13 397.717 76.3447 398.464 76.774C399.21 77.194 399.798 77.782 400.228 78.538C400.657 79.294 400.872 80.1527 400.872 81.114C400.872 82.0753 400.657 82.934 400.228 83.69C399.798 84.446 399.21 85.0387 398.464 85.468C397.717 85.888 396.886 86.098 395.972 86.098ZM395.972 84.992C396.653 84.992 397.264 84.8333 397.806 84.516C398.356 84.1987 398.786 83.746 399.094 83.158C399.411 82.57 399.57 81.8887 399.57 81.114C399.57 80.33 399.411 79.6487 399.094 79.07C398.786 78.482 398.361 78.0293 397.82 77.712C397.278 77.3947 396.662 77.236 395.972 77.236C395.281 77.236 394.665 77.3947 394.124 77.712C393.582 78.0293 393.153 78.482 392.836 79.07C392.528 79.6487 392.374 80.33 392.374 81.114C392.374 81.8887 392.528 82.57 392.836 83.158C393.153 83.746 393.582 84.1987 394.124 84.516C394.674 84.8333 395.29 84.992 395.972 84.992ZM407.592 76.242C408.656 76.242 409.575 76.4427 410.35 76.844C411.134 77.236 411.731 77.8007 412.142 78.538C412.562 79.2753 412.772 80.1433 412.772 81.142C412.772 82.1407 412.562 83.0087 412.142 83.746C411.731 84.474 411.134 85.034 410.35 85.426C409.575 85.8087 408.656 86 407.592 86H404.554V76.242H407.592ZM407.592 84.95C408.852 84.95 409.813 84.6187 410.476 83.956C411.138 83.284 411.47 82.346 411.47 81.142C411.47 79.9287 411.134 78.9813 410.462 78.3C409.799 77.6187 408.842 77.278 407.592 77.278H405.828V84.95H407.592ZM417.726 77.278V80.54H421.282V81.59H417.726V84.95H421.702V86H416.452V76.228H421.702V77.278H417.726Z" fill="white"/>
<path d="M369.433 47.34C369.433 45.6365 369.839 44.0399 370.53 42.5996C370.755 42.1278 370.563 41.8781 370.072 42.0592C365.365 43.8122 362 48.3002 362 53.614C362 60.453 367.543 66 374.384 66C379.697 66 384.187 62.634 385.94 57.9319C386.123 57.4409 385.871 57.2489 385.399 57.4738C383.957 58.1624 382.36 58.5684 380.657 58.5684C374.455 58.5656 369.433 53.5399 369.433 47.34Z" fill="white"/>
<path d="M229.02 47.4364C225.443 47.4282 222.547 50.3101 222.541 53.8775C222.536 57.4449 225.416 60.3517 228.96 60.3627C232.545 60.3709 235.444 57.4862 235.45 53.905C235.45 50.3349 232.578 47.4419 229.02 47.4364ZM222.599 57.5715C222.347 57.1531 221.82 57.01 221.373 57.2412C221.247 57.3073 221.126 57.3816 221.003 57.4532C220.317 57.8495 219.628 58.2404 218.948 58.645C218.559 58.8763 218.405 59.3002 218.531 59.7158C218.652 60.1094 219.008 60.3709 219.447 60.3682C219.571 60.3792 219.711 60.3434 219.837 60.2718C220.668 59.7956 221.505 59.3277 222.325 58.8295C222.758 58.5652 222.862 58.0064 222.599 57.5715ZM235.31 50.0239C235.425 50.3982 235.793 50.6735 236.185 50.6762C236.33 50.6817 236.473 50.6515 236.597 50.5827C237.436 50.1037 238.278 49.6303 239.104 49.1348C239.523 48.8815 239.636 48.3393 239.4 47.9181C239.161 47.4942 238.646 47.296 238.215 47.53C237.345 48.0035 236.492 48.5017 235.645 49.0109C235.313 49.2146 235.195 49.6468 235.31 50.0239ZM229.193 46.6189C229.709 46.6161 230.109 46.206 230.112 45.6665C230.115 45.2151 230.112 44.7609 230.112 44.3095V42.9277C230.101 42.4047 229.703 42.0028 229.196 42C228.677 41.9973 228.266 42.4019 228.263 42.9359C228.258 43.8498 228.258 44.7636 228.263 45.6775C228.266 46.2088 228.677 46.6189 229.193 46.6189ZM229.196 61.3784C228.677 61.3756 228.266 61.7803 228.263 62.3143C228.258 63.2281 228.258 64.142 228.263 65.0559C228.266 65.5899 228.675 66 229.19 66C229.706 65.9972 230.107 65.5871 230.109 65.0476C230.112 64.5962 230.109 64.142 230.109 63.6878V62.306C230.101 61.7858 229.703 61.3811 229.196 61.3784ZM220.679 54.8299C221.2 54.8272 221.592 54.4556 221.614 53.9491C221.636 53.4399 221.26 52.9967 220.736 52.9857C219.785 52.9664 218.833 52.9664 217.884 52.9857C217.374 52.9967 216.984 53.4426 217.001 53.9271C217.011 54.4391 217.42 54.8272 217.944 54.8299C218.405 54.8327 218.863 54.8299 219.324 54.8299C219.776 54.8299 220.226 54.8327 220.679 54.8299ZM240.119 52.9857C239.167 52.9664 238.215 52.9664 237.266 52.9857C236.756 52.9967 236.366 53.4426 236.383 53.9271C236.396 54.4363 236.805 54.8272 237.329 54.8299C237.79 54.8327 238.248 54.8299 238.709 54.8299C239.161 54.8299 239.611 54.8327 240.064 54.8299C240.585 54.8272 240.977 54.4556 240.999 53.9491C241.021 53.4399 240.645 52.9967 240.119 52.9857ZM233.25 47.8163C233.574 47.8108 233.848 47.6897 234.013 47.4117C234.506 46.5804 234.997 45.7436 235.464 44.8985C235.7 44.4719 235.521 43.9406 235.104 43.6984C234.685 43.4534 234.139 43.5497 233.886 43.9654C233.379 44.7994 232.885 45.6417 232.424 46.5005C232.104 47.1006 232.573 47.8135 233.25 47.8163ZM239.049 58.645C238.259 58.1798 237.463 57.7174 236.665 57.2687C236.191 57.0017 235.647 57.1531 235.39 57.6018C235.124 58.0642 235.277 58.5982 235.771 58.8845C236.536 59.3304 237.304 59.7736 238.072 60.214C238.231 60.3049 238.399 60.3792 238.577 60.3654C238.999 60.3654 239.364 60.0929 239.477 59.7075C239.597 59.2947 239.438 58.8763 239.049 58.645ZM224.042 47.1667C224.22 47.4695 224.489 47.6291 224.846 47.6264C225.556 47.6236 225.995 46.8887 225.646 46.2556C225.197 45.4435 224.73 44.6398 224.256 43.8443C223.981 43.3846 223.441 43.2552 222.997 43.514C222.555 43.7755 222.401 44.3122 222.662 44.7774C223.115 45.5784 223.578 46.3739 224.042 47.1667ZM218.964 49.2008C219.749 49.6605 220.539 50.112 221.326 50.5689C221.474 50.6542 221.631 50.6983 221.751 50.6928C222.215 50.69 222.577 50.4202 222.69 50.0321C222.805 49.6247 222.654 49.2036 222.278 48.9834C221.483 48.5127 220.682 48.0475 219.875 47.5933C219.403 47.3263 218.852 47.4832 218.6 47.9319C218.339 48.3943 218.484 48.9201 218.964 49.2008ZM225.427 60.492C224.963 60.2168 224.415 60.3709 224.124 60.8691C223.677 61.6371 223.235 62.4078 222.791 63.1758C222.703 63.33 222.637 63.4896 222.648 63.6575C222.646 64.0924 222.909 64.4503 223.301 64.5659C223.718 64.6898 224.135 64.5356 224.365 64.1475C224.826 63.3685 225.273 62.584 225.723 61.7995C226.003 61.3096 225.877 60.759 225.427 60.492ZM233.971 60.671C233.678 60.17 233.132 60.0158 232.671 60.2883C232.221 60.5553 232.093 61.1059 232.372 61.5958C232.595 61.9895 232.825 62.3776 233.053 62.7712C233.283 63.1703 233.502 63.5722 233.744 63.9658C233.974 64.3429 234.41 64.4943 234.819 64.365C235.195 64.2466 235.45 63.886 235.45 63.4401C235.461 63.2969 235.398 63.1345 235.31 62.9804C234.863 62.2097 234.421 61.4389 233.971 60.671Z" fill="white"/>
<path d="M181.589 84.964H185.005V86H180.315V76.242H181.589V84.964ZM189.632 76.242V86H188.358V76.242H189.632ZM201.196 79.07C200.925 78.5007 200.533 78.062 200.02 77.754C199.506 77.4367 198.909 77.278 198.228 77.278C197.546 77.278 196.93 77.4367 196.38 77.754C195.838 78.062 195.409 78.51 195.092 79.098C194.784 79.6767 194.63 80.3487 194.63 81.114C194.63 81.8793 194.784 82.5513 195.092 83.13C195.409 83.7087 195.838 84.1567 196.38 84.474C196.93 84.782 197.546 84.936 198.228 84.936C199.18 84.936 199.964 84.6513 200.58 84.082C201.196 83.5127 201.555 82.7427 201.658 81.772H197.766V80.736H203.016V81.716C202.941 82.5187 202.689 83.256 202.26 83.928C201.83 84.5907 201.266 85.118 200.566 85.51C199.866 85.8927 199.086 86.084 198.228 86.084C197.322 86.084 196.496 85.874 195.75 85.454C195.003 85.0247 194.41 84.432 193.972 83.676C193.542 82.92 193.328 82.066 193.328 81.114C193.328 80.162 193.542 79.308 193.972 78.552C194.41 77.7867 195.003 77.194 195.75 76.774C196.496 76.3447 197.322 76.13 198.228 76.13C199.264 76.13 200.178 76.3867 200.972 76.9C201.774 77.4133 202.358 78.1367 202.722 79.07H201.196ZM214.218 76.242V86H212.944V81.576H207.974V86H206.7V76.242H207.974V80.526H212.944V76.242H214.218ZM224.399 76.242V77.278H221.739V86H220.465V77.278H217.791V76.242H224.399ZM243.598 76.312V86H242.324V78.776L239.104 86H238.208L234.974 78.762V86H233.7V76.312H235.072L238.656 84.32L242.24 76.312H243.598ZM252.183 86.098C251.277 86.098 250.451 85.888 249.705 85.468C248.958 85.0387 248.365 84.446 247.927 83.69C247.497 82.9247 247.283 82.066 247.283 81.114C247.283 80.162 247.497 79.308 247.927 78.552C248.365 77.7867 248.958 77.194 249.705 76.774C250.451 76.3447 251.277 76.13 252.183 76.13C253.097 76.13 253.928 76.3447 254.675 76.774C255.421 77.194 256.009 77.782 256.439 78.538C256.868 79.294 257.083 80.1527 257.083 81.114C257.083 82.0753 256.868 82.934 256.439 83.69C256.009 84.446 255.421 85.0387 254.675 85.468C253.928 85.888 253.097 86.098 252.183 86.098ZM252.183 84.992C252.864 84.992 253.475 84.8333 254.017 84.516C254.567 84.1987 254.997 83.746 255.305 83.158C255.622 82.57 255.781 81.8887 255.781 81.114C255.781 80.33 255.622 79.6487 255.305 79.07C254.997 78.482 254.572 78.0293 254.031 77.712C253.489 77.3947 252.873 77.236 252.183 77.236C251.492 77.236 250.876 77.3947 250.335 77.712C249.793 78.0293 249.364 78.482 249.047 79.07C248.739 79.6487 248.585 80.33 248.585 81.114C248.585 81.8887 248.739 82.57 249.047 83.158C249.364 83.746 249.793 84.1987 250.335 84.516C250.885 84.8333 251.501 84.992 252.183 84.992ZM263.803 76.242C264.867 76.242 265.786 76.4427 266.561 76.844C267.345 77.236 267.942 77.8007 268.353 78.538C268.773 79.2753 268.983 80.1433 268.983 81.142C268.983 82.1407 268.773 83.0087 268.353 83.746C267.942 84.474 267.345 85.034 266.561 85.426C265.786 85.8087 264.867 86 263.803 86H260.765V76.242H263.803ZM263.803 84.95C265.063 84.95 266.024 84.6187 266.687 83.956C267.349 83.284 267.681 82.346 267.681 81.142C267.681 79.9287 267.345 78.9813 266.673 78.3C266.01 77.6187 265.053 77.278 263.803 77.278H262.039V84.95H263.803ZM273.937 77.278V80.54H277.493V81.59H273.937V84.95H277.913V86H272.663V76.228H277.913V77.278H273.937Z" fill="white"/>
</svg>
