<svg width="120" height="38" viewBox="0 0 120 38" fill="none" xmlns="http://www.w3.org/2000/svg">
<path fill-rule="evenodd" clip-rule="evenodd" d="M62.4331 11.9607C63.9191 11.9607 65.2627 12.328 66.4672 13.0625C67.6705 13.797 68.6238 14.8421 69.3248 16.1956C70.0257 17.549 70.3756 19.1178 70.3756 20.9031C70.3756 22.6861 70.0257 24.2662 69.3248 25.6412C68.6238 27.0173 67.6705 28.0817 66.4672 28.8377C65.2627 29.5927 63.9191 29.9713 62.4331 29.9713C61.1557 29.9713 60.0308 29.7094 59.0574 29.1835C58.1938 28.7176 57.4727 28.1429 56.8962 27.4605L56.6876 27.1998V38H52.2925V12.2441H56.6876V14.7628L56.8839 14.5021C57.429 13.8186 58.1433 13.2393 59.0271 12.7632C60.0219 12.2282 61.1557 11.9607 62.4331 11.9607ZM83.7182 11.9607C85.2042 11.9607 86.5488 12.328 87.7522 13.0625C88.9556 13.797 89.9078 14.8421 90.6087 16.1956C91.3096 17.549 91.6607 19.1178 91.6607 20.9031C91.6607 22.6861 91.3096 24.2662 90.6087 25.6412C89.9078 27.0173 88.9556 28.0817 87.7522 28.8377C86.5488 29.5927 85.2042 29.9713 83.7182 29.9713C82.4419 29.9713 81.317 29.7094 80.3436 29.1835C79.4778 28.7176 78.7577 28.1429 78.1824 27.4605L77.9727 27.1998V38H73.5786V12.2441H77.9727V14.7628L78.169 14.5021C78.714 13.8186 79.4273 13.2393 80.311 12.7632C81.3058 12.2282 82.4419 11.9607 83.7182 11.9607ZM106.282 12.2441L110.771 24.4295L115.322 12.2441H120L109.232 37.9377H104.555L108.322 29.2469L101.353 12.2441H106.282ZM32.7614 0.59375V1.00295L32.3364 1.42122C30.2425 3.53978 28.6309 6.04486 27.5027 8.93761C26.2993 12.0231 25.6971 15.2037 25.6971 18.4785C25.6971 21.6693 26.2679 24.7503 27.4096 27.7201C28.5491 30.6899 30.1764 33.2664 32.2904 35.4496V35.8905H27.8638L27.5094 35.5357C25.65 33.6189 24.192 31.2181 23.1389 28.3333C22.0196 25.2694 21.46 21.9833 21.46 18.4785C21.46 14.8886 22.0454 11.5141 23.2174 8.35498C24.3894 5.19585 26.0952 2.60915 28.3348 0.59375H32.7614ZM93.2039 0.59375L93.593 0.955343C95.6409 2.9152 97.2177 5.38175 98.3213 8.35498C99.4933 11.5141 100.079 14.8886 100.079 18.4785C100.079 21.9833 99.5179 25.2694 98.3987 28.3333C97.2794 31.3984 95.7048 33.9182 93.6738 35.8905H89.2472V35.4496L89.6386 35.0358C91.5642 32.9422 93.0603 30.504 94.1302 27.7201C95.2697 24.7503 95.8405 21.6693 95.8405 18.4785C95.8405 15.2037 95.2394 12.0231 94.036 8.93761C92.8315 5.85216 91.0797 3.20765 88.7762 1.00295V0.59375H93.2039ZM37.8205 11.9607C39.1181 11.9607 40.2531 12.2226 41.2266 12.7474C42.0912 13.2144 42.8034 13.788 43.363 14.4703L43.5649 14.731V12.2441H47.9915V29.6879H43.5649V27.1374L43.3686 27.405C42.8247 28.1043 42.1103 28.6915 41.2266 29.1676C40.2318 29.7038 39.0867 29.9713 37.788 29.9713C36.3245 29.9713 34.9887 29.5927 33.7865 28.8377C32.5831 28.0817 31.6298 27.0173 30.9289 25.6412C30.2279 24.2662 29.878 22.6861 29.878 20.9031C29.878 19.1393 30.2279 17.5762 30.9289 16.2114C31.6298 14.8467 32.5831 13.797 33.7865 13.0625C34.9887 12.328 36.3345 11.9607 37.8205 11.9607ZM4.39518 7.71V16.7464H13.7811V7.71H18.1762V29.6879H13.7811V20.3363H4.39518V29.6879H0V7.71H4.39518ZM38.951 15.834C38.1346 15.834 37.3809 16.0323 36.6901 16.4313C35.9992 16.8303 35.4396 17.413 35.01 18.1792C34.5816 18.9455 34.3674 19.8523 34.3674 20.9031C34.3674 21.9527 34.5816 22.8709 35.01 23.6575C35.4396 24.4453 36.0048 25.0484 36.7058 25.4689C37.4067 25.8883 38.1559 26.098 38.951 26.098C39.7664 26.098 40.5312 25.894 41.2411 25.4836C41.9533 25.0744 42.5185 24.4873 42.9369 23.721C43.3552 22.9548 43.5649 22.0366 43.5649 20.9654C43.5649 19.8954 43.3552 18.9761 42.9369 18.211C42.5185 17.4447 41.9533 16.8564 41.2411 16.4472C40.5312 16.038 39.7664 15.834 38.951 15.834ZM61.2712 15.834C60.4761 15.834 59.728 16.038 59.0271 16.4472C58.3262 16.8564 57.7609 17.4492 57.3314 18.2268C56.9018 19.0033 56.6876 19.9158 56.6876 20.9654C56.6876 22.0162 56.9018 22.9287 57.3314 23.7051C57.7609 24.4816 58.3262 25.0744 59.0271 25.4836C59.728 25.894 60.4761 26.098 61.2712 26.098C62.0877 26.098 62.8458 25.8883 63.5468 25.4689C64.2488 25.0484 64.8141 24.4499 65.2425 23.6734C65.672 22.8969 65.8862 21.9731 65.8862 20.9031C65.8862 19.8523 65.672 18.9455 65.2425 18.1792C64.8141 17.413 64.2488 16.8303 63.5468 16.4313C62.8458 16.0323 62.0877 15.834 61.2712 15.834ZM82.5563 15.834C81.7611 15.834 81.012 16.038 80.311 16.4472C79.6101 16.8564 79.046 17.4492 78.6164 18.2268C78.188 19.0033 77.9727 19.9158 77.9727 20.9654C77.9727 22.0162 78.188 22.9287 78.6164 23.7051C79.046 24.4816 79.6101 25.0744 80.311 25.4836C81.012 25.894 81.7611 26.098 82.5563 26.098C83.3727 26.098 84.132 25.8883 84.8329 25.4689C85.5339 25.0484 86.0991 24.4499 86.5275 23.6734C86.9571 22.8969 87.1724 21.9731 87.1724 20.9031C87.1724 19.8523 86.9571 18.9455 86.5275 18.1792C86.0991 17.413 85.5339 16.8303 84.8329 16.4313C84.132 16.0323 83.3727 15.834 82.5563 15.834Z" fill="#222222"/>
</svg>
